<?xml version="1.0" encoding="UTF-8"?>
<svg xmlns="http://www.w3.org/2000/svg" xmlns:xlink="http://www.w3.org/1999/xlink" width="48px" height="48px" viewBox="0 0 48 48" version="1.1">
<g id="surface1">
<path style=" stroke:none;fill-rule:nonzero;fill:rgb(21.960784%,27.058824%,30.980392%);fill-opacity:1;" d="M 48 29.792969 L 0 29.792969 L 0 4.550781 C 0 2.953125 1.296875 1.65625 2.898438 1.65625 L 45.101562 1.65625 C 46.703125 1.65625 48 2.953125 48 4.550781 Z M 48 29.792969 "/>
<path style=" stroke:none;fill-rule:nonzero;fill:rgb(90.980392%,92.941176%,93.333333%);fill-opacity:1;" d="M 33.929688 46.34375 L 14.070312 46.34375 C 14.070312 44.515625 15.550781 43.035156 17.378906 43.035156 L 30.621094 43.035156 C 32.449219 43.035156 33.929688 44.515625 33.929688 46.34375 "/>
<path style=" stroke:none;fill-rule:nonzero;fill:rgb(69.019608%,71.372549%,73.333333%);fill-opacity:1;" d="M 29.792969 43.035156 L 18.207031 43.035156 L 19.863281 36.414062 L 28.136719 36.414062 Z M 29.792969 43.035156 "/>
<path style=" stroke:none;fill-rule:nonzero;fill:rgb(90.980392%,92.941176%,93.333333%);fill-opacity:1;" d="M 45.101562 36.414062 L 2.898438 36.414062 C 1.296875 36.414062 0 35.117188 0 33.515625 L 0 29.792969 L 48 29.792969 L 48 33.515625 C 48 35.117188 46.703125 36.414062 45.101562 36.414062 "/>
<path style=" stroke:none;fill-rule:nonzero;fill:rgb(14.509804%,68.235294%,53.333333%);fill-opacity:1;" d="M 27.308594 27.308594 C 26.851562 27.308594 26.484375 26.941406 26.484375 26.484375 L 26.484375 24 C 26.484375 23.542969 26.851562 23.171875 27.308594 23.171875 C 27.769531 23.171875 28.136719 23.542969 28.136719 24 L 28.136719 26.484375 C 28.136719 26.941406 27.769531 27.308594 27.308594 27.308594 "/>
<path style=" stroke:none;fill-rule:nonzero;fill:rgb(14.509804%,68.235294%,53.333333%);fill-opacity:1;" d="M 30.621094 27.308594 C 30.164062 27.308594 29.792969 26.941406 29.792969 26.484375 L 29.792969 20.691406 C 29.792969 20.234375 30.164062 19.863281 30.621094 19.863281 C 31.078125 19.863281 31.449219 20.234375 31.449219 20.691406 L 31.449219 26.484375 C 31.449219 26.941406 31.078125 27.308594 30.621094 27.308594 "/>
<path style=" stroke:none;fill-rule:nonzero;fill:rgb(14.509804%,68.235294%,53.333333%);fill-opacity:1;" d="M 33.929688 27.308594 C 33.472656 27.308594 33.101562 26.941406 33.101562 26.484375 L 33.101562 22.34375 C 33.101562 21.886719 33.472656 21.515625 33.929688 21.515625 C 34.390625 21.515625 34.757812 21.886719 34.757812 22.34375 L 34.757812 26.484375 C 34.757812 26.941406 34.390625 27.308594 33.929688 27.308594 "/>
<path style=" stroke:none;fill-rule:nonzero;fill:rgb(14.509804%,68.235294%,53.333333%);fill-opacity:1;" d="M 37.242188 27.308594 C 36.785156 27.308594 36.414062 26.941406 36.414062 26.484375 L 36.414062 16.550781 C 36.414062 16.09375 36.785156 15.722656 37.242188 15.722656 C 37.699219 15.722656 38.070312 16.09375 38.070312 16.550781 L 38.070312 26.484375 C 38.070312 26.941406 37.699219 27.308594 37.242188 27.308594 "/>
<path style=" stroke:none;fill-rule:nonzero;fill:rgb(14.509804%,68.235294%,53.333333%);fill-opacity:1;" d="M 40.550781 27.308594 C 40.09375 27.308594 39.722656 26.941406 39.722656 26.484375 L 39.722656 19.863281 C 39.722656 19.40625 40.09375 19.035156 40.550781 19.035156 C 41.007812 19.035156 41.378906 19.40625 41.378906 19.863281 L 41.378906 26.484375 C 41.378906 26.941406 41.007812 27.308594 40.550781 27.308594 "/>
<path style=" stroke:none;fill-rule:nonzero;fill:rgb(86.666667%,41.176471%,11.372549%);fill-opacity:1;" d="M 22.34375 15.308594 C 22.34375 20.109375 18.453125 24 13.65625 24 C 8.855469 24 4.964844 20.109375 4.964844 15.308594 C 4.964844 10.511719 8.855469 6.621094 13.65625 6.621094 C 18.453125 6.621094 22.34375 10.511719 22.34375 15.308594 "/>
<path style=" stroke:none;fill-rule:nonzero;fill:rgb(92.54902%,72.941176%,8.627451%);fill-opacity:1;" d="M 13.253906 6.628906 C 13.25 6.632812 13.246094 6.636719 13.242188 6.640625 L 13.242188 15.695312 C 13.242188 15.710938 13.253906 15.722656 13.273438 15.722656 L 22.324219 15.722656 C 22.328125 15.71875 22.332031 15.71875 22.335938 15.710938 C 22.566406 10.59375 18.371094 6.398438 13.253906 6.628906 "/>
<path style=" stroke:none;fill-rule:nonzero;fill:rgb(86.666667%,41.176471%,11.372549%);fill-opacity:1;" d="M 36.414062 10.757812 L 29.792969 10.757812 C 29.335938 10.757812 28.964844 10.386719 28.964844 9.929688 C 28.964844 9.472656 29.335938 9.101562 29.792969 9.101562 L 36.414062 9.101562 C 36.871094 9.101562 37.242188 9.472656 37.242188 9.929688 C 37.242188 10.386719 36.871094 10.757812 36.414062 10.757812 "/>
<path style=" stroke:none;fill-rule:nonzero;fill:rgb(86.666667%,41.176471%,11.372549%);fill-opacity:1;" d="M 40.550781 10.757812 C 40.335938 10.757812 40.121094 10.667969 39.964844 10.519531 C 39.929688 10.476562 39.890625 10.4375 39.863281 10.394531 C 39.832031 10.34375 39.808594 10.296875 39.789062 10.246094 C 39.765625 10.195312 39.75 10.144531 39.742188 10.097656 C 39.734375 10.039062 39.722656 9.980469 39.722656 9.929688 C 39.722656 9.882812 39.730469 9.824219 39.742188 9.765625 C 39.75 9.714844 39.765625 9.667969 39.789062 9.617188 C 39.808594 9.566406 39.832031 9.515625 39.863281 9.46875 C 39.890625 9.425781 39.929688 9.382812 39.964844 9.34375 C 40.269531 9.039062 40.824219 9.039062 41.140625 9.34375 C 41.289062 9.5 41.378906 9.707031 41.378906 9.929688 C 41.378906 10.15625 41.289062 10.363281 41.140625 10.519531 C 40.980469 10.667969 40.765625 10.757812 40.550781 10.757812 "/>
<path style=" stroke:none;fill-rule:nonzero;fill:rgb(86.666667%,41.176471%,11.372549%);fill-opacity:1;" d="M 40.550781 6.621094 L 38.070312 6.621094 C 37.609375 6.621094 37.242188 6.25 37.242188 5.792969 C 37.242188 5.335938 37.609375 4.964844 38.070312 4.964844 L 40.550781 4.964844 C 41.007812 4.964844 41.378906 5.335938 41.378906 5.792969 C 41.378906 6.25 41.007812 6.621094 40.550781 6.621094 "/>
<path style=" stroke:none;fill-rule:nonzero;fill:rgb(86.666667%,41.176471%,11.372549%);fill-opacity:1;" d="M 31.449219 6.621094 L 29.792969 6.621094 C 29.335938 6.621094 28.964844 6.25 28.964844 5.792969 C 28.964844 5.335938 29.335938 4.964844 29.792969 4.964844 L 31.449219 4.964844 C 31.90625 4.964844 32.277344 5.335938 32.277344 5.792969 C 32.277344 6.25 31.90625 6.621094 31.449219 6.621094 "/>
<path style=" stroke:none;fill-rule:nonzero;fill:rgb(86.666667%,41.176471%,11.372549%);fill-opacity:1;" d="M 34.757812 6.621094 C 34.542969 6.621094 34.328125 6.53125 34.171875 6.378906 C 34.019531 6.222656 33.929688 6.007812 33.929688 5.792969 C 33.929688 5.578125 34.019531 5.363281 34.171875 5.207031 C 34.253906 5.132812 34.335938 5.074219 34.445312 5.03125 C 34.75 4.898438 35.113281 4.972656 35.347656 5.207031 C 35.496094 5.363281 35.585938 5.578125 35.585938 5.792969 C 35.585938 6.007812 35.496094 6.222656 35.347656 6.378906 C 35.1875 6.53125 34.972656 6.621094 34.757812 6.621094 "/>
</g>
</svg>
