<?xml version="1.0" encoding="UTF-8"?>
<svg xmlns="http://www.w3.org/2000/svg" xmlns:xlink="http://www.w3.org/1999/xlink" width="24px" height="24px" viewBox="0 0 24 24" version="1.1">
<g id="surface1">
<path style=" stroke:none;fill-rule:nonzero;fill:rgb(29.803922%,68.627451%,31.372549%);fill-opacity:1;" d="M 22.5 8.101562 L 20 9.476562 L 17.5 11.851562 L 17.5 20 L 21 20 C 21.828125 20 22.5 19.328125 22.5 18.5 Z M 22.5 8.101562 "/>
<path style=" stroke:none;fill-rule:nonzero;fill:rgb(11.764706%,53.333333%,89.803922%);fill-opacity:1;" d="M 1.5 8.101562 L 3.308594 8.953125 L 6.5 11.851562 L 6.5 20 L 3 20 C 2.171875 20 1.5 19.328125 1.5 18.5 Z M 1.5 8.101562 "/>
<path style=" stroke:none;fill-rule:nonzero;fill:rgb(89.803922%,22.352941%,20.784314%);fill-opacity:1;" d="M 17.5 5.601562 L 12 9.726562 L 6.5 5.601562 L 6 8.5 L 6.5 11.851562 L 12 15.976562 L 17.5 11.851562 L 18 8.5 Z M 17.5 5.601562 "/>
<path style=" stroke:none;fill-rule:nonzero;fill:rgb(77.647059%,15.686275%,15.686275%);fill-opacity:1;" d="M 1.5 6.148438 L 1.5 8.101562 L 6.5 11.851562 L 6.5 5.601562 L 4.9375 4.429688 C 4.566406 4.152344 4.113281 4 3.648438 4 C 2.460938 4 1.5 4.960938 1.5 6.148438 Z M 1.5 6.148438 "/>
<path style=" stroke:none;fill-rule:nonzero;fill:rgb(98.431373%,75.294118%,17.647059%);fill-opacity:1;" d="M 22.5 6.148438 L 22.5 8.101562 L 17.5 11.851562 L 17.5 5.601562 L 19.0625 4.429688 C 19.433594 4.152344 19.886719 4 20.351562 4 C 21.539062 4 22.5 4.960938 22.5 6.148438 Z M 22.5 6.148438 "/>
</g>
</svg>
